<svg width="282" height="272" viewBox="0 0 282 272" fill="none" xmlns="http://www.w3.org/2000/svg">
<path d="M49.6061 165.8V167.416H53.3021V177H55.0621V167.416H58.7741V165.8H49.6061ZM62.5076 175.688C61.0196 175.688 59.9156 174.552 59.9156 173.064C59.9156 171.608 61.0196 170.456 62.5076 170.456C63.9956 170.456 65.0836 171.608 65.0836 173.064C65.0836 174.552 63.9956 175.688 62.5076 175.688ZM62.5076 177.208C65.0516 177.208 66.8116 175.336 66.8116 173.064C66.8116 170.808 65.0516 168.936 62.5076 168.936C59.9476 168.936 58.1876 170.808 58.1876 173.064C58.1876 175.336 59.9476 177.208 62.5076 177.208ZM71.218 170.664H74.178V177H75.906V169.144H69.57L69.522 171.704C69.474 174.36 69.09 175.528 67.938 175.528C67.842 175.528 67.698 175.512 67.586 175.48V176.968C67.762 177.016 67.938 177.032 68.13 177.032C70.77 177.032 71.122 174.296 71.186 171.8L71.218 170.664ZM78.3726 177H82.4366C84.4526 177 85.5246 175.784 85.5246 174.264C85.5246 172.616 84.2926 171.528 82.3566 171.528H80.1006V169.144H78.3726V177ZM80.1006 175.544V172.984H82.1646C83.1726 172.984 83.7806 173.448 83.7806 174.264C83.7806 175.064 83.1726 175.544 82.1646 175.544H80.1006ZM87.4351 177H89.1631V173.448L92.6671 177H95.0351L90.7471 172.664L94.4751 169.144H92.2671L89.1631 172.12V169.144H87.4351V177ZM99.7576 175.688C98.2696 175.688 97.1656 174.552 97.1656 173.064C97.1656 171.608 98.2696 170.456 99.7576 170.456C101.246 170.456 102.334 171.608 102.334 173.064C102.334 174.552 101.246 175.688 99.7576 175.688ZM99.7576 177.208C102.302 177.208 104.062 175.336 104.062 173.064C104.062 170.808 102.302 168.936 99.7576 168.936C97.1976 168.936 95.4376 170.808 95.4376 173.064C95.4376 175.336 97.1976 177.208 99.7576 177.208ZM110.123 177H111.851V173.448L115.355 177H117.723L113.435 172.664L117.163 169.144H114.955L111.851 172.12V169.144H110.123V177ZM126.483 175.656C126.099 175.656 125.827 175.368 125.827 174.872V171.944C125.827 169.96 124.307 168.936 122.195 168.936C120.819 168.936 119.891 169.288 119.331 169.608V171.128C119.923 170.76 120.899 170.424 121.811 170.424C123.027 170.424 124.115 170.776 124.115 172.136V172.568C123.571 172.264 122.787 171.96 121.603 171.96C119.939 171.96 118.451 172.824 118.451 174.568C118.451 176.248 119.747 177.208 121.395 177.208C122.771 177.208 123.731 176.632 124.291 175.992C124.515 176.776 125.171 177.112 125.939 177.112C126.275 177.112 126.707 177.032 126.947 176.856V175.544C126.803 175.624 126.627 175.656 126.483 175.656ZM124.115 174.776C123.667 175.272 122.819 175.72 121.875 175.72C120.931 175.72 120.179 175.336 120.179 174.472C120.179 173.704 120.883 173.256 122.019 173.256C122.867 173.256 123.603 173.528 124.115 173.816V174.776ZM133.426 177H135.154V169.144H133.426V172.632C132.914 172.888 132.194 173.032 131.65 173.032C130.29 173.032 129.826 172.488 129.826 170.984V169.144H128.098V171.128C128.098 173.704 129.282 174.536 131.362 174.536C132.034 174.536 132.802 174.424 133.426 174.168V177ZM141.399 177.208C142.599 177.208 143.671 176.888 144.295 176.44V174.984C143.607 175.4 142.743 175.688 141.767 175.688C140.199 175.688 139.031 174.92 138.807 173.576H144.823V173.128C144.823 171.064 143.607 168.936 141.095 168.936C138.663 168.936 137.063 170.76 137.063 173.064C137.063 175.576 139.015 177.208 141.399 177.208ZM138.823 172.264C138.919 171.304 139.687 170.392 141.015 170.392C142.407 170.392 143.063 171.416 143.079 172.264H138.823ZM150.459 177.208C151.467 177.208 152.219 177 152.971 176.568V175.096C152.299 175.496 151.611 175.688 150.731 175.688C149.195 175.688 147.947 174.6 147.947 173.064C147.947 171.528 149.195 170.456 150.731 170.456C151.499 170.456 152.155 170.632 152.843 170.968V169.48C152.139 169.112 151.435 168.936 150.475 168.936C148.171 168.936 146.219 170.584 146.219 173.048C146.219 175.544 148.171 177.208 150.459 177.208ZM156.835 177H158.563V170.664H161.203V169.144H154.179V170.664H156.835V177ZM162.779 177H167.307C169.083 177 170.059 176.152 170.059 174.856C170.059 173.768 169.419 173.112 168.523 172.84C169.099 172.568 169.531 171.96 169.531 171.144C169.531 170.04 168.715 169.144 167.067 169.144H162.779V177ZM164.507 175.608V173.672H167.003C167.819 173.672 168.299 174.024 168.299 174.648C168.299 175.256 167.819 175.608 167.003 175.608H164.507ZM164.507 172.28V170.536H166.651C167.403 170.536 167.835 170.824 167.835 171.416C167.835 171.944 167.403 172.28 166.651 172.28H164.507ZM175.852 177.208C177.052 177.208 178.124 176.888 178.748 176.44V174.984C178.06 175.4 177.196 175.688 176.22 175.688C174.652 175.688 173.484 174.92 173.26 173.576H179.276V173.128C179.276 171.064 178.06 168.936 175.548 168.936C173.116 168.936 171.516 170.76 171.516 173.064C171.516 175.576 173.468 177.208 175.852 177.208ZM173.276 172.264C173.372 171.304 174.14 170.392 175.468 170.392C176.86 170.392 177.516 171.416 177.532 172.264H173.276ZM181.232 177H182.96V173.736H186.944V177H188.672V169.144H186.944V172.216H182.96V169.144H181.232V177ZM191.138 177H192.866V173.736H196.85V177H198.578V169.144H196.85V172.216H192.866V169.144H191.138V177ZM208.421 175.656C208.036 175.656 207.765 175.368 207.765 174.872V171.944C207.765 169.96 206.245 168.936 204.133 168.936C202.757 168.936 201.829 169.288 201.269 169.608V171.128C201.861 170.76 202.837 170.424 203.749 170.424C204.965 170.424 206.053 170.776 206.053 172.136V172.568C205.509 172.264 204.725 171.96 203.541 171.96C201.877 171.96 200.389 172.824 200.389 174.568C200.389 176.248 201.685 177.208 203.333 177.208C204.709 177.208 205.669 176.632 206.229 175.992C206.453 176.776 207.109 177.112 207.877 177.112C208.213 177.112 208.645 177.032 208.885 176.856V175.544C208.741 175.624 208.565 175.656 208.421 175.656ZM206.053 174.776C205.605 175.272 204.757 175.72 203.812 175.72C202.869 175.72 202.117 175.336 202.117 174.472C202.117 173.704 202.821 173.256 203.957 173.256C204.805 173.256 205.541 173.528 206.053 173.816V174.776ZM209.919 177H211.903L213.855 174.296H215.759V177H217.487V169.144H213.359C211.295 169.144 210.399 170.28 210.399 171.624C210.399 172.824 211.023 173.656 212.143 173.944L209.919 177ZM213.599 172.904C212.687 172.904 212.159 172.472 212.159 171.72C212.159 170.984 212.687 170.536 213.599 170.536H215.759V172.904H213.599ZM224.107 177H225.723L229.963 171.656V177H231.691V169.144H230.075L225.835 174.472V169.144H224.107V177ZM42.6148 197H44.3428V190.664H48.2148V197H49.9428V189.144H42.6148V197ZM56.9397 188.936C55.5797 188.936 54.6517 189.544 54.1397 190.216V189.144H52.4117V200.2H54.1397V195.928C54.6517 196.6 55.5797 197.208 56.9397 197.208C59.1957 197.208 60.7477 195.352 60.7477 193.08C60.7477 190.808 59.1957 188.936 56.9397 188.936ZM56.4757 190.456C57.9477 190.456 59.0037 191.624 59.0037 193.08C59.0037 194.52 57.9477 195.688 56.4757 195.688C55.4037 195.688 54.5397 195.048 54.1397 194.296V191.864C54.5397 191.08 55.4037 190.456 56.4757 190.456ZM66.4061 195.688C64.9181 195.688 63.8141 194.552 63.8141 193.064C63.8141 191.608 64.9181 190.456 66.4061 190.456C67.8941 190.456 68.9821 191.608 68.9821 193.064C68.9821 194.552 67.8941 195.688 66.4061 195.688ZM66.4061 197.208C68.9501 197.208 70.7101 195.336 70.7101 193.064C70.7101 190.808 68.9501 188.936 66.4061 188.936C63.8461 188.936 62.0861 190.808 62.0861 193.064C62.0861 195.336 63.8461 197.208 66.4061 197.208ZM72.6148 197H77.1428C78.9188 197 79.8948 196.152 79.8948 194.856C79.8948 193.768 79.2548 193.112 78.3588 192.84C78.9348 192.568 79.3668 191.96 79.3668 191.144C79.3668 190.04 78.5508 189.144 76.9028 189.144H72.6148V197ZM74.3428 195.608V193.672H76.8388C77.6548 193.672 78.1348 194.024 78.1348 194.648C78.1348 195.256 77.6548 195.608 76.8388 195.608H74.3428ZM74.3428 192.28V190.536H76.4868C77.2388 190.536 77.6708 190.824 77.6708 191.416C77.6708 191.944 77.2388 192.28 76.4868 192.28H74.3428ZM85.6877 197.208C86.8877 197.208 87.9597 196.888 88.5837 196.44V194.984C87.8957 195.4 87.0317 195.688 86.0557 195.688C84.4877 195.688 83.3197 194.92 83.0957 193.576H89.1117V193.128C89.1117 191.064 87.8957 188.936 85.3837 188.936C82.9517 188.936 81.3517 190.76 81.3517 193.064C81.3517 195.576 83.3037 197.208 85.6877 197.208ZM83.1117 192.264C83.2077 191.304 83.9757 190.392 85.3037 190.392C86.6957 190.392 87.3517 191.416 87.3677 192.264H83.1117ZM95.5959 188.936C94.2359 188.936 93.3079 189.544 92.7959 190.216V189.144H91.0679V200.2H92.7959V195.928C93.3079 196.6 94.2359 197.208 95.5959 197.208C97.8519 197.208 99.4039 195.352 99.4039 193.08C99.4039 190.808 97.8519 188.936 95.5959 188.936ZM95.1319 190.456C96.6039 190.456 97.6599 191.624 97.6599 193.08C97.6599 194.52 96.6039 195.688 95.1319 195.688C94.0599 195.688 93.1959 195.048 92.7959 194.296V191.864C93.1959 191.08 94.0599 190.456 95.1319 190.456ZM105.078 197.208C106.278 197.208 107.35 196.888 107.974 196.44V194.984C107.286 195.4 106.422 195.688 105.446 195.688C103.878 195.688 102.71 194.92 102.486 193.576H108.502V193.128C108.502 191.064 107.286 188.936 104.774 188.936C102.342 188.936 100.742 190.76 100.742 193.064C100.742 195.576 102.694 197.208 105.078 197.208ZM102.502 192.264C102.598 191.304 103.366 190.392 104.694 190.392C106.086 190.392 106.742 191.416 106.758 192.264H102.502ZM110.459 197H112.187V193.736H116.171V197H117.899V189.144H116.171V192.216H112.187V189.144H110.459V197ZM120.365 197H122.093V193.736H126.077V197H127.805V189.144H126.077V192.216H122.093V189.144H120.365V197ZM137.647 195.656C137.263 195.656 136.991 195.368 136.991 194.872V191.944C136.991 189.96 135.471 188.936 133.359 188.936C131.983 188.936 131.055 189.288 130.495 189.608V191.128C131.087 190.76 132.063 190.424 132.975 190.424C134.191 190.424 135.279 190.776 135.279 192.136V192.568C134.735 192.264 133.951 191.96 132.767 191.96C131.103 191.96 129.615 192.824 129.615 194.568C129.615 196.248 130.911 197.208 132.559 197.208C133.935 197.208 134.895 196.632 135.455 195.992C135.679 196.776 136.335 197.112 137.103 197.112C137.439 197.112 137.871 197.032 138.111 196.856V195.544C137.967 195.624 137.791 195.656 137.647 195.656ZM135.279 194.776C134.831 195.272 133.983 195.72 133.039 195.72C132.095 195.72 131.343 195.336 131.343 194.472C131.343 193.704 132.047 193.256 133.183 193.256C134.031 193.256 134.767 193.528 135.279 193.816V194.776ZM139.146 197H141.13L143.082 194.296H144.986V197H146.714V189.144H142.586C140.522 189.144 139.626 190.28 139.626 191.624C139.626 192.824 140.25 193.656 141.37 193.944L139.146 197ZM142.826 192.904C141.914 192.904 141.386 192.472 141.386 191.72C141.386 190.984 141.914 190.536 142.826 190.536H144.986V192.904H142.826ZM153.334 197H155.062V190.664H158.934V197H160.662V189.144H153.334V197ZM167.658 188.936C166.298 188.936 165.37 189.544 164.858 190.216V189.144H163.13V200.2H164.858V195.928C165.37 196.6 166.298 197.208 167.658 197.208C169.914 197.208 171.466 195.352 171.466 193.08C171.466 190.808 169.914 188.936 167.658 188.936ZM167.194 190.456C168.666 190.456 169.722 191.624 169.722 193.08C169.722 194.52 168.666 195.688 167.194 195.688C166.122 195.688 165.258 195.048 164.858 194.296V191.864C165.258 191.08 166.122 190.456 167.194 190.456ZM177.125 195.688C175.637 195.688 174.533 194.552 174.533 193.064C174.533 191.608 175.637 190.456 177.125 190.456C178.613 190.456 179.701 191.608 179.701 193.064C179.701 194.552 178.613 195.688 177.125 195.688ZM177.125 197.208C179.669 197.208 181.429 195.336 181.429 193.064C181.429 190.808 179.669 188.936 177.125 188.936C174.565 188.936 172.805 190.808 172.805 193.064C172.805 195.336 174.565 197.208 177.125 197.208ZM182.219 199.16H183.883V197H190.363V199.16H191.995V195.48H190.635V189.144H184.379C184.363 192.6 184.075 194.248 183.243 195.48H182.219V199.16ZM185.067 195.48C185.611 194.424 185.963 192.904 185.963 190.664H188.907V195.48H185.067ZM194.524 200.28C195.9 200.28 196.844 199.4 197.516 197.848L201.276 189.144H199.404L197.116 194.68L194.748 189.144H192.828L196.268 196.712C195.708 198.056 195.164 198.76 194.236 198.76C193.788 198.76 193.468 198.68 193.1 198.504V200.024C193.404 200.2 193.948 200.28 194.524 200.28ZM202.865 197H204.593V193.448L208.097 197H210.465L206.177 192.664L209.905 189.144H207.697L204.593 192.12V189.144H202.865V197ZM219.029 199.16H220.709V195.48H219.333V189.144H217.605V195.48H213.733V189.144H212.005V197H219.029V199.16ZM222.443 197H224.059L228.299 191.656V197H230.027V189.144H228.411L224.171 194.472V189.144H222.443V197ZM231.818 197H233.802L235.754 194.296H237.658V197H239.386V189.144H235.258C233.194 189.144 232.298 190.28 232.298 191.624C232.298 192.824 232.922 193.656 234.042 193.944L231.818 197ZM235.498 192.904C234.586 192.904 234.058 192.472 234.058 191.72C234.058 190.984 234.586 190.536 235.498 190.536H237.658V192.904H235.498Z" fill="white"/>
<path fill-rule="evenodd" clip-rule="evenodd" d="M159.671 235.999L116 235.999V231.999L159.67 231.999L154.758 226.726L157.685 224L165.73 232.637L166.999 234L165.73 235.363L157.685 244L154.758 241.273L159.671 235.999Z" fill="white"/>
<circle cx="140.5" cy="78.5" r="16.5" stroke="white" stroke-opacity="0.5" stroke-width="4"/>
<path d="M147.665 50.3303L148.471 51.1195L149.563 50.8388L158.6 48.5159L161.107 57.5039L161.41 58.5901L162.496 58.893L171.484 61.4L169.161 70.4373L168.881 71.5294L169.67 72.3349L176.2 79L169.67 85.6651L168.881 86.4706L169.161 87.5627L171.484 96.6L162.496 99.107L161.41 99.4099L161.107 100.496L158.6 109.484L149.563 107.161L148.471 106.881L147.665 107.67L141 114.2L134.335 107.67L133.529 106.881L132.437 107.161L123.4 109.484L120.893 100.496L120.59 99.4099L119.504 99.107L110.516 96.6L112.839 87.5627L113.12 86.4706L112.33 85.6651L105.8 79L112.33 72.3349L113.12 71.5294L112.839 70.4373L110.516 61.4L119.504 58.893L120.59 58.5901L120.893 57.5039L123.4 48.5159L132.437 50.8388L133.529 51.1195L134.335 50.3303L141 43.8L147.665 50.3303Z" stroke="white" stroke-width="4"/>
<path d="M116.004 99L105.006 123.18L118.121 122.507L126.227 132.839L131.451 121.33" stroke="white" stroke-width="4"/>
<path d="M145.557 109.822L156.004 132.839L164.111 122.507L177.225 123.18L171.726 111.09" stroke="white" stroke-width="4"/>
</svg>
