<svg width="282" height="272" viewBox="0 0 282 272" fill="none" xmlns="http://www.w3.org/2000/svg">
<path d="M49.7077 165.8V167.416H53.4037V177H55.1637V167.416H58.8757V165.8H49.7077ZM62.6252 177.208C63.8252 177.208 64.8972 176.888 65.5212 176.44V174.984C64.8332 175.4 63.9692 175.688 62.9932 175.688C61.4252 175.688 60.2572 174.92 60.0332 173.576H66.0492V173.128C66.0492 171.064 64.8332 168.936 62.3212 168.936C59.8892 168.936 58.2892 170.76 58.2892 173.064C58.2892 175.576 60.2412 177.208 62.6252 177.208ZM60.0492 172.264C60.1452 171.304 60.9132 170.392 62.2412 170.392C63.6332 170.392 64.2892 171.416 64.3052 172.264H60.0492ZM69.2903 169.144H67.2903L70.1383 172.888L66.9703 177H68.9223L71.1143 174.136L73.3063 177H75.3063L72.1383 172.856L74.9863 169.144H73.0183L71.1463 171.576L69.2903 169.144ZM77.0523 177H78.7803V173.736H82.7643V177H84.4923V169.144H82.7643V172.216H78.7803V169.144H77.0523V177ZM86.9586 177H88.5746L92.8146 171.656V177H94.5426V169.144H92.9266L88.6866 174.472V169.144H86.9586V177ZM101.949 177H103.677V169.144H101.949V172.632C101.437 172.888 100.717 173.032 100.173 173.032C98.8134 173.032 98.3494 172.488 98.3494 170.984V169.144H96.6214V171.128C96.6214 173.704 97.8054 174.536 99.8854 174.536C100.557 174.536 101.325 174.424 101.949 174.168V177ZM109.922 177.208C111.122 177.208 112.194 176.888 112.818 176.44V174.984C112.13 175.4 111.266 175.688 110.29 175.688C108.722 175.688 107.554 174.92 107.33 173.576H113.346V173.128C113.346 171.064 112.13 168.936 109.618 168.936C107.186 168.936 105.586 170.76 105.586 173.064C105.586 175.576 107.538 177.208 109.922 177.208ZM107.346 172.264C107.442 171.304 108.21 170.392 109.538 170.392C110.93 170.392 111.586 171.416 111.602 172.264H107.346ZM118.982 177.208C119.99 177.208 120.742 177 121.494 176.568V175.096C120.822 175.496 120.134 175.688 119.254 175.688C117.718 175.688 116.47 174.6 116.47 173.064C116.47 171.528 117.718 170.456 119.254 170.456C120.022 170.456 120.678 170.632 121.366 170.968V169.48C120.662 169.112 119.958 168.936 118.998 168.936C116.694 168.936 114.742 170.584 114.742 173.048C114.742 175.544 116.694 177.208 118.982 177.208ZM123.615 177H125.343V173.448L128.847 177H131.215L126.927 172.664L130.655 169.144H128.447L125.343 172.12V169.144H123.615V177ZM139.975 175.656C139.591 175.656 139.319 175.368 139.319 174.872V171.944C139.319 169.96 137.799 168.936 135.687 168.936C134.311 168.936 133.383 169.288 132.823 169.608V171.128C133.415 170.76 134.391 170.424 135.303 170.424C136.519 170.424 137.607 170.776 137.607 172.136V172.568C137.063 172.264 136.279 171.96 135.095 171.96C133.431 171.96 131.943 172.824 131.943 174.568C131.943 176.248 133.239 177.208 134.887 177.208C136.263 177.208 137.223 176.632 137.783 175.992C138.007 176.776 138.663 177.112 139.431 177.112C139.767 177.112 140.199 177.032 140.439 176.856V175.544C140.295 175.624 140.119 175.656 139.975 175.656ZM137.607 174.776C137.159 175.272 136.311 175.72 135.367 175.72C134.423 175.72 133.671 175.336 133.671 174.472C133.671 173.704 134.375 173.256 135.511 173.256C136.359 173.256 137.095 173.528 137.607 173.816V174.776ZM141.474 177H143.458L145.41 174.296H147.314V177H149.042V169.144H144.914C142.85 169.144 141.954 170.28 141.954 171.624C141.954 172.824 142.578 173.656 143.698 173.944L141.474 177ZM145.154 172.904C144.242 172.904 143.714 172.472 143.714 171.72C143.714 170.984 144.242 170.536 145.154 170.536H147.314V172.904H145.154ZM155.662 177H157.39V170.664H161.262V177H162.99V169.144H155.662V177ZM169.219 175.688C167.731 175.688 166.627 174.552 166.627 173.064C166.627 171.608 167.731 170.456 169.219 170.456C170.707 170.456 171.795 171.608 171.795 173.064C171.795 174.552 170.707 175.688 169.219 175.688ZM169.219 177.208C171.763 177.208 173.523 175.336 173.523 173.064C173.523 170.808 171.763 168.936 169.219 168.936C166.659 168.936 164.899 170.808 164.899 173.064C164.899 175.336 166.659 177.208 169.219 177.208ZM175.427 177H177.091V171.496L179.475 174.392H180.147L182.547 171.496V177H184.211V169.144H182.515L179.811 172.408L177.123 169.144H175.427V177ZM190.437 175.688C188.949 175.688 187.845 174.552 187.845 173.064C187.845 171.608 188.949 170.456 190.437 170.456C191.925 170.456 193.013 171.608 193.013 173.064C193.013 174.552 191.925 175.688 190.437 175.688ZM190.437 177.208C192.981 177.208 194.741 175.336 194.741 173.064C194.741 170.808 192.981 168.936 190.437 168.936C187.877 168.936 186.117 170.808 186.117 173.064C186.117 175.336 187.877 177.208 190.437 177.208ZM196.646 177H207.382V179.16H209.062V175.48H207.686V169.144H205.958V175.48H203.03V169.144H201.302V175.48H198.374V169.144H196.646V177ZM210.787 177H214.851C216.867 177 217.939 175.784 217.939 174.264C217.939 172.616 216.707 171.528 214.771 171.528H212.515V169.144H210.787V177ZM212.515 175.544V172.984H214.579C215.587 172.984 216.195 173.448 216.195 174.264C216.195 175.064 215.587 175.544 214.579 175.544H212.515ZM224.005 177H225.621L229.861 171.656V177H231.589V169.144H229.973L225.733 174.472V169.144H224.005V177ZM86.8726 197H88.6006V193.448L92.1046 197H94.4726L90.1846 192.664L93.9126 189.144H91.7046L88.6006 192.12V189.144H86.8726V197ZM99.1951 195.688C97.7071 195.688 96.6031 194.552 96.6031 193.064C96.6031 191.608 97.7071 190.456 99.1951 190.456C100.683 190.456 101.771 191.608 101.771 193.064C101.771 194.552 100.683 195.688 99.1951 195.688ZM99.1951 197.208C101.739 197.208 103.499 195.336 103.499 193.064C103.499 190.808 101.739 188.936 99.1951 188.936C96.6351 188.936 94.8751 190.808 94.8751 193.064C94.8751 195.336 96.6351 197.208 99.1951 197.208ZM105.404 197H107.132V193.736H111.116V197H112.844V189.144H111.116V192.216H107.132V189.144H105.404V197ZM118.99 197.208C119.998 197.208 120.75 197 121.502 196.568V195.096C120.83 195.496 120.142 195.688 119.262 195.688C117.726 195.688 116.478 194.6 116.478 193.064C116.478 191.528 117.726 190.456 119.262 190.456C120.03 190.456 120.686 190.632 121.374 190.968V189.48C120.67 189.112 119.966 188.936 119.006 188.936C116.702 188.936 114.75 190.584 114.75 193.048C114.75 195.544 116.702 197.208 118.99 197.208ZM124.423 200.28C125.799 200.28 126.743 199.4 127.415 197.848L131.175 189.144H129.303L127.015 194.68L124.647 189.144H122.727L126.167 196.712C125.607 198.056 125.063 198.76 124.135 198.76C123.687 198.76 123.367 198.68 122.999 198.504V200.024C123.303 200.2 123.847 200.28 124.423 200.28ZM134.999 190.664H137.959V197H139.687V189.144H133.351L133.303 191.704C133.255 194.36 132.871 195.528 131.719 195.528C131.623 195.528 131.479 195.512 131.367 195.48V196.968C131.543 197.016 131.719 197.032 131.911 197.032C134.551 197.032 134.903 194.296 134.967 191.8L134.999 190.664ZM142.154 197H146.218C148.234 197 149.306 195.784 149.306 194.264C149.306 192.616 148.074 191.528 146.138 191.528H143.882V189.144H142.154V197ZM143.882 195.544V192.984H145.946C146.954 192.984 147.562 193.448 147.562 194.264C147.562 195.064 146.954 195.544 145.946 195.544H143.882ZM152.257 197H153.985V190.664H156.625V189.144H149.601V190.664H152.257V197ZM165.577 195.656C165.193 195.656 164.921 195.368 164.921 194.872V191.944C164.921 189.96 163.401 188.936 161.289 188.936C159.913 188.936 158.985 189.288 158.425 189.608V191.128C159.017 190.76 159.993 190.424 160.905 190.424C162.121 190.424 163.209 190.776 163.209 192.136V192.568C162.665 192.264 161.881 191.96 160.697 191.96C159.033 191.96 157.545 192.824 157.545 194.568C157.545 196.248 158.841 197.208 160.489 197.208C161.865 197.208 162.825 196.632 163.385 195.992C163.609 196.776 164.265 197.112 165.033 197.112C165.369 197.112 165.801 197.032 166.041 196.856V195.544C165.897 195.624 165.721 195.656 165.577 195.656ZM163.209 194.776C162.761 195.272 161.913 195.72 160.969 195.72C160.025 195.72 159.273 195.336 159.273 194.472C159.273 193.704 159.977 193.256 161.113 193.256C161.961 193.256 162.697 193.528 163.209 193.816V194.776ZM174.772 199.16H176.452V195.48H175.076V189.144H173.348V195.48H169.476V189.144H167.748V197H174.772V199.16ZM178.185 197H179.801L184.041 191.656V197H185.769V189.144H184.153L179.913 194.472V189.144H178.185V197ZM187.56 197H189.544L191.496 194.296H193.4V197H195.128V189.144H191C188.936 189.144 188.04 190.28 188.04 191.624C188.04 192.824 188.664 193.656 189.784 193.944L187.56 197ZM191.24 192.904C190.328 192.904 189.8 192.472 189.8 191.72C189.8 190.984 190.328 190.536 191.24 190.536H193.4V192.904H191.24Z" fill="white"/>
<path d="M117 81V85C117 87.7614 119.239 90 122 90H134" stroke="white" stroke-width="4"/>
<path fill-rule="evenodd" clip-rule="evenodd" d="M150.212 95.6686L152.066 93.5909L153.443 96.0107L157.738 103.558L154.262 105.536L151.344 100.409L143.719 108.956L143.743 108.981L143.686 109.043L150.323 116.689L147.302 119.311L140.952 111.996L134.134 119.359L131.199 116.641L138.257 109.019L129.935 100.272L126.71 105.585L123.29 103.509L127.872 95.9621L129.228 93.7276L131.03 95.6213L140.953 106.049L150.212 95.6686Z" fill="white" fill-opacity="0.5"/>
<path d="M107.656 113.791C102.014 119 99.4275 128.55 99 133H141L125.611 105C121.87 105.543 113.299 108.581 107.656 113.791Z" stroke="white" stroke-width="4"/>
<path d="M174.344 113.791C179.986 119 182.573 128.55 183 133H141L156.389 105C160.13 105.543 168.701 108.581 174.344 113.791Z" stroke="white" stroke-width="4"/>
<path d="M123.892 66.8906C123.456 57.142 131.242 49 141 49C150.758 49 158.544 57.142 158.108 66.8906L157.325 84.3897C156.934 93.1217 149.741 100 141 100C132.259 100 125.066 93.1217 124.675 84.3897L123.892 66.8906Z" stroke="white" stroke-width="4"/>
<path d="M123.5 66C123.5 66 127.788 60.5199 132.845 59.3243C140.471 57.5209 140.181 63.6617 151.345 67.3317C154.078 68.2302 158 68 158 68" stroke="white" stroke-opacity="0.5" stroke-width="4"/>
<path fill-rule="evenodd" clip-rule="evenodd" d="M168.921 75.1516C169.018 72.7329 168.295 70.4714 166.998 68.6363C166.818 53.4893 155.392 41 141 41C126.911 41 115.665 52.9691 115.028 67.6835C113.262 69.658 112.232 72.2952 112.347 75.1516L112.368 75.688C112.604 81.5167 117.519 86.0512 123.348 85.816L123.187 81.8193C119.565 81.9654 116.511 79.1481 116.365 75.5268L116.344 74.9903C116.197 71.369 119.015 68.3148 122.636 68.1687L122.475 64.1719C121.375 64.2163 120.321 64.4273 119.337 64.7796C121.174 53.4349 130.289 45 141 45C151.81 45 160.994 53.5918 162.712 65.0954C161.512 64.5534 160.189 64.2283 158.793 64.1719L158.631 68.1687C162.253 68.3148 165.07 71.369 164.924 74.9903L164.902 75.5268C164.756 79.1481 161.702 81.9654 158.081 81.8193L157.919 85.816C163.748 86.0512 168.664 81.5167 168.899 75.688L168.921 75.1516Z" fill="white"/>
<rect x="134.003" y="86.8917" width="10.6774" height="6.24404" rx="3.12202" transform="rotate(0.400125 134.003 86.8917)" stroke="white" stroke-width="4"/>
<path d="M163 116C165.051 116.688 169.923 119.85 173 127" stroke="white" stroke-opacity="0.5" stroke-width="4"/>
</svg>
