<svg width="282" height="272" viewBox="0 0 282 272" fill="none" xmlns="http://www.w3.org/2000/svg">
<path d="M64.0014 177H65.7614V168.488L68.8814 172.712H69.9054L73.0254 168.488V177H74.7854V165.8H73.0254L69.4254 170.84L65.7934 165.8H64.0014V177ZM85.3079 177H87.0359V169.144H85.3079V177ZM77.4039 177H81.1159C83.1319 177 84.2039 175.784 84.2039 174.264C84.2039 172.616 82.9719 171.528 81.0359 171.528H79.1319V169.144H77.4039V177ZM79.1319 175.544V172.984H80.8439C81.8519 172.984 82.4599 173.448 82.4599 174.264C82.4599 175.064 81.8519 175.544 80.8439 175.544H79.1319ZM93.6539 177H98.1819C99.9579 177 100.934 176.152 100.934 174.856C100.934 173.768 100.294 173.112 99.3979 172.84C99.9739 172.568 100.406 171.96 100.406 171.144C100.406 170.04 99.5899 169.144 97.9419 169.144H93.6539V177ZM95.3819 175.608V173.672H97.8779C98.6939 173.672 99.1739 174.024 99.1739 174.648C99.1739 175.256 98.6939 175.608 97.8779 175.608H95.3819ZM95.3819 172.28V170.536H97.5259C98.2779 170.536 98.7099 170.824 98.7099 171.416C98.7099 171.944 98.2779 172.28 97.5259 172.28H95.3819ZM106.631 177.208C107.639 177.208 108.391 177 109.143 176.568V175.096C108.471 175.496 107.783 175.688 106.903 175.688C105.367 175.688 104.119 174.6 104.119 173.064C104.119 171.528 105.367 170.456 106.903 170.456C107.671 170.456 108.327 170.632 109.015 170.968V169.48C108.311 169.112 107.607 168.936 106.647 168.936C104.343 168.936 102.391 170.584 102.391 173.048C102.391 175.544 104.343 177.208 106.631 177.208ZM114.883 177.208C116.083 177.208 117.155 176.888 117.779 176.44V174.984C117.091 175.4 116.227 175.688 115.251 175.688C113.683 175.688 112.515 174.92 112.291 173.576H118.307V173.128C118.307 171.064 117.091 168.936 114.579 168.936C112.147 168.936 110.547 170.76 110.547 173.064C110.547 175.576 112.499 177.208 114.883 177.208ZM112.307 172.264C112.403 171.304 113.171 170.392 114.499 170.392C115.891 170.392 116.547 171.416 116.563 172.264H112.307ZM120.263 177H121.991V170.664H126.343V169.144H120.263V177ZM126.336 179.16H128V177H134.48V179.16H136.112V175.48H134.752V169.144H128.496C128.48 172.6 128.192 174.248 127.36 175.48H126.336V179.16ZM129.184 175.48C129.728 174.424 130.08 172.904 130.08 170.664H133.024V175.48H129.184ZM145.217 175.656C144.833 175.656 144.561 175.368 144.561 174.872V171.944C144.561 169.96 143.041 168.936 140.929 168.936C139.553 168.936 138.625 169.288 138.065 169.608V171.128C138.657 170.76 139.633 170.424 140.545 170.424C141.761 170.424 142.849 170.776 142.849 172.136V172.568C142.305 172.264 141.521 171.96 140.337 171.96C138.673 171.96 137.185 172.824 137.185 174.568C137.185 176.248 138.481 177.208 140.129 177.208C141.505 177.208 142.465 176.632 143.025 175.992C143.249 176.776 143.905 177.112 144.673 177.112C145.009 177.112 145.441 177.032 145.681 176.856V175.544C145.537 175.624 145.361 175.656 145.217 175.656ZM142.849 174.776C142.401 175.272 141.553 175.72 140.609 175.72C139.665 175.72 138.913 175.336 138.913 174.472C138.913 173.704 139.617 173.256 140.753 173.256C141.601 173.256 142.337 173.528 142.849 173.816V174.776ZM151.545 177H153.273V173.736H157.257V177H158.985V169.144H157.257V172.216H153.273V169.144H151.545V177ZM168.827 175.656C168.443 175.656 168.171 175.368 168.171 174.872V171.944C168.171 169.96 166.651 168.936 164.539 168.936C163.163 168.936 162.235 169.288 161.675 169.608V171.128C162.267 170.76 163.243 170.424 164.155 170.424C165.371 170.424 166.459 170.776 166.459 172.136V172.568C165.915 172.264 165.131 171.96 163.947 171.96C162.283 171.96 160.795 172.824 160.795 174.568C160.795 176.248 162.091 177.208 163.739 177.208C165.115 177.208 166.075 176.632 166.635 175.992C166.859 176.776 167.515 177.112 168.283 177.112C168.619 177.112 169.051 177.032 169.291 176.856V175.544C169.147 175.624 168.971 175.656 168.827 175.656ZM166.459 174.776C166.011 175.272 165.163 175.72 164.219 175.72C163.275 175.72 162.523 175.336 162.523 174.472C162.523 173.704 163.227 173.256 164.363 173.256C165.211 173.256 165.947 173.528 166.459 173.816V174.776ZM178.834 177.208C179.842 177.208 180.594 177 181.346 176.568V175.096C180.674 175.496 179.986 175.688 179.106 175.688C177.57 175.688 176.322 174.6 176.322 173.064C176.322 171.528 177.57 170.456 179.106 170.456C179.874 170.456 180.53 170.632 181.218 170.968V169.48C180.514 169.112 179.81 168.936 178.85 168.936C176.546 168.936 174.594 170.584 174.594 173.048C174.594 175.544 176.546 177.208 178.834 177.208ZM183.466 177H187.994C189.77 177 190.746 176.152 190.746 174.856C190.746 173.768 190.106 173.112 189.21 172.84C189.786 172.568 190.218 171.96 190.218 171.144C190.218 170.04 189.402 169.144 187.754 169.144H183.466V177ZM185.194 175.608V173.672H187.69C188.506 173.672 188.986 174.024 188.986 174.648C188.986 175.256 188.506 175.608 187.69 175.608H185.194ZM185.194 172.28V170.536H187.338C188.09 170.536 188.522 170.824 188.522 171.416C188.522 171.944 188.09 172.28 187.338 172.28H185.194ZM192.091 177H194.075L196.027 174.296H197.931V177H199.659V169.144H195.531C193.467 169.144 192.571 170.28 192.571 171.624C192.571 172.824 193.195 173.656 194.315 173.944L192.091 177ZM195.771 172.904C194.859 172.904 194.331 172.472 194.331 171.72C194.331 170.984 194.859 170.536 195.771 170.536H197.931V172.904H195.771ZM204.763 177.208C207.067 177.208 208.555 176.168 208.555 174.712C208.555 173.592 207.851 173.032 207.051 172.776C207.675 172.552 208.251 172.104 208.251 171.048C208.251 169.784 206.811 168.936 204.939 168.936C203.739 168.936 202.747 169.144 201.995 169.48V171C202.731 170.68 203.659 170.424 204.571 170.424C205.659 170.424 206.475 170.68 206.475 171.336C206.475 171.816 206.107 172.2 205.003 172.2H203.547V173.592H205.003C206.075 173.592 206.731 173.896 206.731 174.584C206.731 175.32 205.867 175.72 204.523 175.72C203.467 175.72 202.523 175.432 201.771 175.08V176.648C202.507 177 203.467 177.208 204.763 177.208ZM210.576 177H212.192L216.432 171.656V177H218.16V169.144H216.544L212.304 174.472V169.144H210.576V177ZM82.8573 197.208C83.8653 197.208 84.6173 197 85.3693 196.568V195.096C84.6973 195.496 84.0093 195.688 83.1293 195.688C81.5933 195.688 80.3453 194.6 80.3453 193.064C80.3453 191.528 81.5933 190.456 83.1293 190.456C83.8973 190.456 84.5533 190.632 85.2413 190.968V189.48C84.5373 189.112 83.8333 188.936 82.8733 188.936C80.5693 188.936 78.6173 190.584 78.6173 193.048C78.6173 195.544 80.5693 197.208 82.8573 197.208ZM95.3101 185.592C93.1021 185.592 91.3741 187.16 91.3741 189.464C91.3741 191.656 92.9901 193.032 94.9741 193.032C96.3181 193.032 97.2941 192.52 97.8701 191.768C97.7901 193.704 96.7821 195.608 94.4781 195.608C93.6621 195.608 92.9101 195.384 92.2061 194.904V196.504C92.9261 196.984 93.8061 197.208 94.6701 197.208C97.9501 197.208 99.6781 194.248 99.6781 190.84C99.6781 187.544 98.0461 185.592 95.3101 185.592ZM95.4221 187.144C96.9101 187.144 97.7901 188.2 97.9181 189.832C97.6141 190.84 96.5421 191.608 95.4381 191.608C94.1261 191.608 93.1181 190.744 93.1181 189.432C93.1181 188.104 94.1101 187.144 95.4221 187.144ZM102.649 191.528C103.257 191.528 103.769 191.032 103.769 190.392C103.769 189.784 103.257 189.272 102.649 189.272C102.009 189.272 101.513 189.784 101.513 190.392C101.513 191.032 102.009 191.528 102.649 191.528ZM102.649 197.128C103.257 197.128 103.769 196.632 103.769 195.992C103.769 195.384 103.257 194.872 102.649 194.872C102.009 194.872 101.513 195.384 101.513 195.992C101.513 196.632 102.009 197.128 102.649 197.128ZM110.281 197.208C113.225 197.208 115.001 194.52 115.001 191.4C115.001 188.296 113.225 185.592 110.281 185.592C107.353 185.592 105.577 188.296 105.577 191.4C105.577 194.52 107.353 197.208 110.281 197.208ZM110.281 195.56C108.489 195.56 107.337 193.672 107.337 191.4C107.337 189.128 108.489 187.24 110.281 187.24C112.089 187.24 113.241 189.128 113.241 191.4C113.241 193.672 112.089 195.56 110.281 195.56ZM121.578 197.208C124.522 197.208 126.298 194.52 126.298 191.4C126.298 188.296 124.522 185.592 121.578 185.592C118.65 185.592 116.874 188.296 116.874 191.4C116.874 194.52 118.65 197.208 121.578 197.208ZM121.578 195.56C119.786 195.56 118.634 193.672 118.634 191.4C118.634 189.128 119.786 187.24 121.578 187.24C123.386 187.24 124.538 189.128 124.538 191.4C124.538 193.672 123.386 195.56 121.578 195.56ZM131.719 199.16H133.383V197H139.863V199.16H141.495V195.48H140.135V189.144H133.879C133.863 192.6 133.575 194.248 132.743 195.48H131.719V199.16ZM134.567 195.48C135.111 194.424 135.463 192.904 135.463 190.664H138.407V195.48H134.567ZM146.984 195.688C145.496 195.688 144.392 194.552 144.392 193.064C144.392 191.608 145.496 190.456 146.984 190.456C148.472 190.456 149.56 191.608 149.56 193.064C149.56 194.552 148.472 195.688 146.984 195.688ZM146.984 197.208C149.528 197.208 151.288 195.336 151.288 193.064C151.288 190.808 149.528 188.936 146.984 188.936C144.424 188.936 142.664 190.808 142.664 193.064C142.664 195.336 144.424 197.208 146.984 197.208ZM158.981 197H160.709V185.8H159.173L156.533 187.288V189L158.981 187.688V197ZM169.523 191.048C170.499 190.616 171.203 189.752 171.203 188.616C171.203 186.808 169.555 185.592 167.379 185.592C165.187 185.592 163.539 186.808 163.539 188.616C163.539 189.752 164.227 190.616 165.235 191.048C163.939 191.48 162.995 192.488 162.995 193.88C162.995 195.992 165.011 197.208 167.379 197.208C169.747 197.208 171.747 195.992 171.747 193.88C171.747 192.488 170.819 191.48 169.523 191.048ZM165.219 188.76C165.219 187.752 166.163 187.048 167.379 187.048C168.579 187.048 169.523 187.752 169.523 188.76C169.523 189.768 168.579 190.472 167.379 190.472C166.163 190.472 165.219 189.768 165.219 188.76ZM167.379 195.72C165.923 195.72 164.803 194.872 164.803 193.768C164.803 192.616 165.923 191.832 167.379 191.832C168.835 191.832 169.939 192.616 169.939 193.768C169.939 194.872 168.835 195.72 167.379 195.72ZM174.524 191.528C175.132 191.528 175.644 191.032 175.644 190.392C175.644 189.784 175.132 189.272 174.524 189.272C173.884 189.272 173.388 189.784 173.388 190.392C173.388 191.032 173.884 191.528 174.524 191.528ZM174.524 197.128C175.132 197.128 175.644 196.632 175.644 195.992C175.644 195.384 175.132 194.872 174.524 194.872C173.884 194.872 173.388 195.384 173.388 195.992C173.388 196.632 173.884 197.128 174.524 197.128ZM182.156 197.208C185.1 197.208 186.876 194.52 186.876 191.4C186.876 188.296 185.1 185.592 182.156 185.592C179.228 185.592 177.452 188.296 177.452 191.4C177.452 194.52 179.228 197.208 182.156 197.208ZM182.156 195.56C180.364 195.56 179.212 193.672 179.212 191.4C179.212 189.128 180.364 187.24 182.156 187.24C183.964 187.24 185.116 189.128 185.116 191.4C185.116 193.672 183.964 195.56 182.156 195.56ZM193.453 197.208C196.397 197.208 198.173 194.52 198.173 191.4C198.173 188.296 196.397 185.592 193.453 185.592C190.525 185.592 188.749 188.296 188.749 191.4C188.749 194.52 190.525 197.208 193.453 197.208ZM193.453 195.56C191.661 195.56 190.509 193.672 190.509 191.4C190.509 189.128 191.661 187.24 193.453 187.24C195.261 187.24 196.413 189.128 196.413 191.4C196.413 193.672 195.261 195.56 193.453 195.56ZM201.566 197.128C202.19 197.128 202.686 196.632 202.686 196.008C202.686 195.384 202.19 194.872 201.566 194.872C200.958 194.872 200.446 195.384 200.446 196.008C200.446 196.632 200.958 197.128 201.566 197.128ZM200.798 193.4H202.35L202.718 185.8H200.446L200.798 193.4Z" fill="white"/>
<path fill-rule="evenodd" clip-rule="evenodd" d="M191 55H189H93H91V57V121V123H93H109V119H95V59H187V119H154H153.172L152.586 119.586L141.5 130.672L130.414 119.586L127.586 122.414L140.086 134.914L141.5 136.328L142.914 134.914L154.828 123H189H191V121V57V55Z" fill="white"/>
<path d="M102 49H197V116" stroke="white" stroke-opacity="0.5" stroke-width="4"/>
<circle cx="142.5" cy="89.5" r="20.5" stroke="white" stroke-opacity="0.5" stroke-width="4"/>
<path d="M132 88.3333L140.4 97L153 84" stroke="white" stroke-width="4"/>
<path fill-rule="evenodd" clip-rule="evenodd" d="M159.671 235.999L116 235.999V231.999L159.67 231.999L154.758 226.726L157.685 224L165.73 232.637L166.999 234L165.73 235.363L157.685 244L154.758 241.273L159.671 235.999Z" fill="white"/>
</svg>
