<svg width="282" height="272" viewBox="0 0 282 272" fill="none" xmlns="http://www.w3.org/2000/svg">
<g clip-path="url(#clip0_4_162)">
<path d="M282 0H72L0 72V272H210L282 200V0Z" fill="#C53720"/>
<path d="M37.892 177H39.652V171.832H45.492V177H47.252V165.8H45.492V170.216H39.652V165.8H37.892V177ZM57.2486 175.656C56.8646 175.656 56.5926 175.368 56.5926 174.872V171.944C56.5926 169.96 55.0726 168.936 52.9606 168.936C51.5846 168.936 50.6566 169.288 50.0966 169.608V171.128C50.6886 170.76 51.6646 170.424 52.5766 170.424C53.7926 170.424 54.8806 170.776 54.8806 172.136V172.568C54.3366 172.264 53.5526 171.96 52.3686 171.96C50.7046 171.96 49.2166 172.824 49.2166 174.568C49.2166 176.248 50.5126 177.208 52.1606 177.208C53.5366 177.208 54.4966 176.632 55.0566 175.992C55.2806 176.776 55.9366 177.112 56.7046 177.112C57.0406 177.112 57.4726 177.032 57.7126 176.856V175.544C57.5686 175.624 57.3926 175.656 57.2486 175.656ZM54.8806 174.776C54.4326 175.272 53.5846 175.72 52.6406 175.72C51.6966 175.72 50.9446 175.336 50.9446 174.472C50.9446 173.704 51.6486 173.256 52.7846 173.256C53.6326 173.256 54.3686 173.528 54.8806 173.816V174.776ZM62.1555 170.664H65.1155V177H66.8435V169.144H60.5075L60.4595 171.704C60.4115 174.36 60.0275 175.528 58.8755 175.528C58.7795 175.528 58.6355 175.512 58.5235 175.48V176.968C58.6995 177.016 58.8755 177.032 59.0675 177.032C61.7075 177.032 62.0595 174.296 62.1235 171.8L62.1555 170.664ZM69.3101 177H70.9261L75.1661 171.656V177H76.8941V169.144H75.2781L71.0381 174.472V169.144H69.3101V177ZM84.301 177H86.029V169.144H84.301V172.632C83.789 172.888 83.069 173.032 82.525 173.032C81.165 173.032 80.701 172.488 80.701 170.984V169.144H78.973V171.128C78.973 173.704 80.157 174.536 82.237 174.536C82.909 174.536 83.677 174.424 84.301 174.168V177ZM88.4976 177H90.2256V173.736H94.2096V177H95.9376V169.144H94.2096V172.216H90.2256V169.144H88.4976V177ZM106.308 177H108.036V169.144H106.308V177ZM98.4039 177H102.116C104.132 177 105.204 175.784 105.204 174.264C105.204 172.616 103.972 171.528 102.036 171.528H100.132V169.144H98.4039V177ZM100.132 175.544V172.984H101.844C102.852 172.984 103.46 173.448 103.46 174.264C103.46 175.064 102.852 175.544 101.844 175.544H100.132ZM110.498 177H112.114L116.354 171.656V177H118.082V169.144H116.466L112.226 174.472V169.144H110.498V177ZM114.29 168.088C115.842 168.088 117.042 167.096 117.058 165.448H115.586C115.57 166.216 115.058 166.76 114.274 166.76C113.474 166.76 112.978 166.216 112.978 165.448H111.522C111.538 167.096 112.69 168.088 114.29 168.088ZM124.701 177H126.317L130.557 171.656V177H132.285V169.144H130.669L126.429 174.472V169.144H124.701V177ZM142.744 177.208C145 177.208 146.776 175.576 146.776 173.16C146.776 171 145.256 169.576 143.224 169.576C141.816 169.576 140.68 170.2 140.04 171.128C140.264 168.04 142.712 167.784 145.896 167.176V165.576C141.08 166.344 138.456 167.432 138.456 172.04C138.456 175.128 139.96 177.208 142.744 177.208ZM142.744 175.688C141.144 175.688 140.232 174.536 140.152 172.648C140.632 171.832 141.624 171.064 142.808 171.064C144.072 171.064 145.048 171.912 145.048 173.288C145.048 174.712 144.04 175.688 142.744 175.688ZM152.461 177.208C153.661 177.208 154.733 176.888 155.357 176.44V174.984C154.669 175.4 153.805 175.688 152.829 175.688C151.261 175.688 150.093 174.92 149.869 173.576H155.885V173.128C155.885 171.064 154.669 168.936 152.157 168.936C149.725 168.936 148.125 170.76 148.125 173.064C148.125 175.576 150.077 177.208 152.461 177.208ZM149.885 172.264C149.981 171.304 150.749 170.392 152.077 170.392C153.469 170.392 154.125 171.416 154.141 172.264H149.885ZM160.341 177.208C162.645 177.208 164.133 176.168 164.133 174.712C164.133 173.592 163.429 173.032 162.629 172.776C163.253 172.552 163.829 172.104 163.829 171.048C163.829 169.784 162.389 168.936 160.517 168.936C159.317 168.936 158.325 169.144 157.573 169.48V171C158.309 170.68 159.237 170.424 160.149 170.424C161.237 170.424 162.053 170.68 162.053 171.336C162.053 171.816 161.685 172.2 160.581 172.2H159.125V173.592H160.581C161.653 173.592 162.309 173.896 162.309 174.584C162.309 175.32 161.445 175.72 160.101 175.72C159.045 175.72 158.101 175.432 157.349 175.08V176.648C158.085 177 159.045 177.208 160.341 177.208ZM166.154 177H167.882V173.736H171.866V177H173.594V169.144H171.866V172.216H167.882V169.144H166.154V177ZM183.436 175.656C183.052 175.656 182.78 175.368 182.78 174.872V171.944C182.78 169.96 181.26 168.936 179.148 168.936C177.772 168.936 176.844 169.288 176.284 169.608V171.128C176.876 170.76 177.852 170.424 178.764 170.424C179.98 170.424 181.068 170.776 181.068 172.136V172.568C180.524 172.264 179.74 171.96 178.556 171.96C176.892 171.96 175.404 172.824 175.404 174.568C175.404 176.248 176.7 177.208 178.348 177.208C179.724 177.208 180.684 176.632 181.244 175.992C181.468 176.776 182.124 177.112 182.892 177.112C183.228 177.112 183.66 177.032 183.9 176.856V175.544C183.756 175.624 183.58 175.656 183.436 175.656ZM181.068 174.776C180.62 175.272 179.772 175.72 178.828 175.72C177.884 175.72 177.132 175.336 177.132 174.472C177.132 173.704 177.836 173.256 178.972 173.256C179.82 173.256 180.556 173.528 181.068 173.816V174.776ZM188.343 170.664H191.303V177H193.031V169.144H186.695L186.647 171.704C186.599 174.36 186.215 175.528 185.063 175.528C184.967 175.528 184.823 175.512 184.711 175.48V176.968C184.887 177.016 185.063 177.032 185.255 177.032C187.895 177.032 188.247 174.296 188.311 171.8L188.343 170.664ZM195.498 177H197.114L201.354 171.656V177H203.082V169.144H201.466L197.226 174.472V169.144H195.498V177ZM210.489 177H212.217V169.144H210.489V172.632C209.977 172.888 209.257 173.032 208.713 173.032C207.353 173.032 206.889 172.488 206.889 170.984V169.144H205.161V171.128C205.161 173.704 206.345 174.536 208.424 174.536C209.097 174.536 209.865 174.424 210.489 174.168V177ZM214.685 177H216.413V173.736H220.397V177H222.125V169.144H220.397V172.216H216.413V169.144H214.685V177ZM232.495 177H234.223V169.144H232.495V177ZM224.591 177H228.303C230.319 177 231.391 175.784 231.391 174.264C231.391 172.616 230.159 171.528 228.223 171.528H226.319V169.144H224.591V177ZM226.319 175.544V172.984H228.031C229.039 172.984 229.647 173.448 229.647 174.264C229.647 175.064 229.039 175.544 228.031 175.544H226.319ZM236.685 177H238.301L242.541 171.656V177H244.269V169.144H242.653L238.413 174.472V169.144H236.685V177ZM240.477 168.088C242.029 168.088 243.229 167.096 243.245 165.448H241.773C241.757 166.216 241.245 166.76 240.461 166.76C239.661 166.76 239.165 166.216 239.165 165.448H237.709C237.725 167.096 238.877 168.088 240.477 168.088ZM119.791 188.936C118.431 188.936 117.503 189.544 116.991 190.216V189.144H115.263V200.2H116.991V195.928C117.503 196.6 118.431 197.208 119.791 197.208C122.047 197.208 123.599 195.352 123.599 193.08C123.599 190.808 122.047 188.936 119.791 188.936ZM119.327 190.456C120.799 190.456 121.855 191.624 121.855 193.08C121.855 194.52 120.799 195.688 119.327 195.688C118.255 195.688 117.391 195.048 116.991 194.296V191.864C117.391 191.08 118.255 190.456 119.327 190.456ZM132.874 195.656C132.49 195.656 132.218 195.368 132.218 194.872V191.944C132.218 189.96 130.698 188.936 128.586 188.936C127.21 188.936 126.282 189.288 125.722 189.608V191.128C126.314 190.76 127.29 190.424 128.202 190.424C129.418 190.424 130.506 190.776 130.506 192.136V192.568C129.962 192.264 129.178 191.96 127.994 191.96C126.33 191.96 124.842 192.824 124.842 194.568C124.842 196.248 126.138 197.208 127.786 197.208C129.162 197.208 130.122 196.632 130.682 195.992C130.906 196.776 131.562 197.112 132.33 197.112C132.666 197.112 133.098 197.032 133.338 196.856V195.544C133.194 195.624 133.018 195.656 132.874 195.656ZM130.506 194.776C130.058 195.272 129.21 195.72 128.266 195.72C127.322 195.72 126.57 195.336 126.57 194.472C126.57 193.704 127.274 193.256 128.41 193.256C129.258 193.256 129.994 193.528 130.506 193.816V194.776ZM138.725 197.208C139.733 197.208 140.485 197 141.237 196.568V195.096C140.565 195.496 139.877 195.688 138.997 195.688C137.461 195.688 136.213 194.6 136.213 193.064C136.213 191.528 137.461 190.456 138.997 190.456C139.765 190.456 140.421 190.632 141.109 190.968V189.48C140.405 189.112 139.701 188.936 138.741 188.936C136.437 188.936 134.485 190.584 134.485 193.048C134.485 195.544 136.437 197.208 138.725 197.208ZM148.301 197H150.029V189.144H148.301V192.632C147.789 192.888 147.069 193.032 146.525 193.032C145.165 193.032 144.701 192.488 144.701 190.984V189.144H142.973V191.128C142.973 193.704 144.157 194.536 146.237 194.536C146.909 194.536 147.677 194.424 148.301 194.168V197ZM156.274 197.208C157.474 197.208 158.546 196.888 159.17 196.44V194.984C158.482 195.4 157.618 195.688 156.642 195.688C155.074 195.688 153.906 194.92 153.682 193.576H159.698V193.128C159.698 191.064 158.482 188.936 155.97 188.936C153.538 188.936 151.938 190.76 151.938 193.064C151.938 195.576 153.89 197.208 156.274 197.208ZM153.698 192.264C153.794 191.304 154.562 190.392 155.89 190.392C157.282 190.392 157.938 191.416 157.954 192.264H153.698ZM163.257 197H164.985V190.664H167.625V189.144H160.601V190.664H163.257V197Z" fill="white"/>
<rect x="78" y="86.7273" width="85.6552" height="46.2727" stroke="white" stroke-width="4"/>
<path d="M169.241 113.455H196C201.523 113.455 206 108.977 206 103.455V66C206 60.4772 201.523 56 196 56H126.345C120.822 56 116.345 60.4772 116.345 66V81.1364" stroke="white" stroke-width="4"/>
<path d="M135.862 109.864C135.862 118.182 129.128 124.92 120.828 124.92C112.527 124.92 105.793 118.182 105.793 109.864C105.793 101.546 112.527 94.8068 120.828 94.8068C129.128 94.8068 135.862 101.546 135.862 109.864Z" stroke="white" stroke-opacity="0.5" stroke-width="4"/>
<path d="M118.345 102.886H122.614C124.484 102.886 126 104.402 126 106.273C126 108.143 124.484 109.659 122.614 109.659H118.345V102.886Z" stroke="white" stroke-width="4"/>
<rect x="112.759" y="108.068" width="7.17241" height="3.59091" fill="white"/>
<rect x="112.759" y="113.455" width="15.2414" height="3.59091" fill="white"/>
<rect x="116.345" y="100.886" width="3.58621" height="18.8523" fill="white"/>
<path d="M145.034 93.7045H156.69V108.068" stroke="white" stroke-opacity="0.5" stroke-width="4"/>
<path d="M96.6207 126.023H84.9655V111.659" stroke="white" stroke-opacity="0.5" stroke-width="4"/>
<path d="M84.9655 108.068V100.886" stroke="white" stroke-opacity="0.5" stroke-width="4"/>
<path fill-rule="evenodd" clip-rule="evenodd" d="M186.276 104.441C184.946 105.583 183.219 106.273 181.331 106.273C177.13 106.273 173.724 102.856 173.724 98.642C173.724 94.4277 177.13 91.0114 181.331 91.0114C183.219 91.0114 184.946 91.7011 186.276 92.843C187.606 91.7011 189.333 91.0114 191.22 91.0114C195.422 91.0114 198.828 94.4277 198.828 98.642C198.828 102.856 195.422 106.273 191.22 106.273C189.333 106.273 187.606 105.583 186.276 104.441Z" fill="white"/>
<rect x="118.138" y="65.875" width="86.069" height="4.48864" fill="white" fill-opacity="0.5"/>
<rect x="118.138" y="73.9546" width="86.069" height="4.48864" fill="white" fill-opacity="0.5"/>
</g>
<defs>
<clipPath id="clip0_4_162">
<rect width="282" height="272" fill="white"/>
</clipPath>
</defs>
</svg>
